<?xml version="1.0" encoding="iso-8859-1"?>
<!-- Generator: Adobe Illustrator 16.0.0, SVG Export Plug-In . SVG Version: 6.00 Build 0)  -->
<!DOCTYPE svg PUBLIC "-//W3C//DTD SVG 1.1//EN" "http://www.w3.org/Graphics/SVG/1.1/DTD/svg11.dtd">
<svg version="1.1" id="Capa_1" xmlns="http://www.w3.org/2000/svg" xmlns:xlink="http://www.w3.org/1999/xlink" x="0px" y="0px"
	 width="183.933px" height="183.934px" viewBox="0 0 183.933 183.934" style="enable-background:new 0 0 183.933 183.934;"
	 xml:space="preserve">
<g>
	<path d="M159.736,123.815l-13.109-0.164l0.158-13.116c0.024-1.717-1.358-3.143-3.075-3.16l-20.758-0.268
		c20.617-16.562,25.702-46.497,10.911-69.073c-7.721-11.767-19.704-19.647-33.2-22.375l0.331-3.252
		c1.918-1.068,3.148-2.746,3.337-4.686c0.22-2.055-0.749-4.076-2.646-5.535c-1.498-1.153-3.498-1.909-5.623-2.128
		c-2.856-0.274-5.593,0.402-7.447,1.909c-1.264,1.041-2.058,2.444-2.208,3.955c-0.179,1.936,0.682,3.827,2.338,5.249l-0.341,3.51
		c-6.43,0.237-12.69,1.641-18.563,4.159l-3.148-4.795c1.565-3.047,1.602-6.141,0.024-8.555c-2.813-4.296-9.74-4.576-15.753-0.63
		c-6.01,3.943-8.51,10.403-5.696,14.696c1.571,2.408,4.421,3.623,7.855,3.389l2.975,4.533C36.887,44.288,32.455,73.157,46.846,95.1
		c2.786,4.262,6.189,7.952,9.983,11.154l-15.67-0.207c-0.012,0-0.024,0-0.036,0c-0.819,0-1.604,0.317-2.183,0.89
		c-0.6,0.578-0.922,1.37-0.935,2.198l-0.17,13.116l-13.107-0.165c-0.018,0-0.03,0-0.042,0c-1.696,0-3.093,1.37-3.118,3.082
		l-0.487,37.855c-0.012,0.828,0.314,1.632,0.886,2.217c0.587,0.591,1.379,0.926,2.201,0.938l13.113,0.164l-0.161,13.123
		c-0.024,1.711,1.358,3.136,3.075,3.154l25.051,0.322c0.021,0,0.04,0,0.052,0c0.804,0,1.595-0.316,2.167-0.883
		c0.606-0.578,0.938-1.37,0.95-2.205l0.292-22.87l46.238,0.597l-0.292,22.871c-0.036,1.717,1.352,3.136,3.062,3.154l25.058,0.328
		c0.024,0,0.036,0,0.049,0c0.81,0,1.595-0.316,2.174-0.889c0.608-0.578,0.932-1.37,0.943-2.198l0.171-13.116l13.104,0.164
		c0.019,0,0.03,0,0.043,0c0.81,0,1.595-0.316,2.18-0.883c0.597-0.578,0.926-1.369,0.938-2.197l0.481-37.869
		C162.835,125.253,161.454,123.834,159.736,123.815z M95.432,6.265c1.132,0.119,1.921,0.481,2.35,0.785
		c-0.131,0.058-0.292,0.119-0.499,0.171C96.272,7.488,95.48,8.25,95.13,9.208c-0.131-1.011-0.765-1.915-1.702-2.377
		c-0.18-0.092-0.329-0.18-0.448-0.269C93.461,6.359,94.296,6.146,95.432,6.265z M57.258,17.876
		c-0.718-1.087-1.994-1.629-3.291-1.331c-1.802,0.417-3.151,0.101-3.48-0.398c-0.569-0.859,0.484-3.821,3.909-6.065
		c3.422-2.247,6.552-2.027,7.122-1.175c0.329,0.505,0.085,1.854-1.017,3.355c-0.767,1.047-0.804,2.469-0.101,3.556l3.873,5.885
		c-0.816,0.475-1.671,0.849-2.463,1.367c-0.274,0.18-0.511,0.384-0.779,0.566L57.258,17.876z M52.046,91.695
		c-13.844-21.12-7.925-49.56,13.186-63.406c7.483-4.908,16.164-7.508,25.072-7.508c15.524,0,29.858,7.733,38.341,20.682
		c13.853,21.12,7.928,49.568-13.184,63.409c-7.478,4.914-16.151,7.508-25.069,7.508C74.88,112.374,60.543,104.646,52.046,91.695z
		 M90.399,118.609c8.835,0,17.396-2.362,25.094-6.631l-0.269,21.031l-46.238-0.596l0.231-18.365
		C75.791,116.959,82.955,118.609,90.399,118.609z M27.361,159.991l0.393-31.633l9.996,0.128l-0.399,31.627L27.361,159.991z
		 M43.372,176.426l0.816-64.094l18.825,0.249l-0.816,64.089L43.372,176.426z M68.743,150.76l0.155-12.105l46.235,0.598
		l-0.152,12.105L68.743,150.76z M120.899,177.418l0.816-64.088l18.815,0.244l-0.815,64.088L120.899,177.418z M156.137,161.642
		l-9.998-0.134l0.396-31.627l10.005,0.127L156.137,161.642z M56.16,88.998c-9.457-14.413-9.021-33.481,1.075-47.459
		c0.996-1.41,2.959-1.702,4.344-0.707c1.404,1.011,1.702,2.957,0.7,4.354c-8.588,11.895-8.96,28.126-0.91,40.393
		c5.212,7.949,13.205,13.399,22.515,15.323c9.341,1.948,18.834,0.134,26.768-5.072c7.953-5.213,13.396-13.22,15.333-22.53
		c1.942-9.316,0.134-18.824-5.072-26.768c-0.944-1.44-0.548-3.374,0.896-4.314c1.449-0.94,3.367-0.548,4.316,0.898
		c6.12,9.347,8.239,20.521,5.979,31.456c-2.277,10.942-8.683,20.344-18.029,26.477c-6.887,4.523-14.797,6.861-22.865,6.868
		c-2.855,0-5.736-0.292-8.598-0.89C71.693,104.738,62.292,98.339,56.16,88.998z M84.282,61.286c-0.642,0.91-1.099,1.945-1.328,3.072
		c-0.45,2.188-0.04,4.414,1.185,6.293c1.559,2.362,4.177,3.772,7.002,3.772c1.632,0,3.224-0.475,4.588-1.373
		c3.849-2.536,4.933-7.73,2.408-11.579c-1.86-2.822-5.395-4.141-8.619-3.559l-17.016-25.94c-0.947-1.446-2.886-1.839-4.308-0.898
		c-1.434,0.941-1.839,2.874-0.904,4.314L84.282,61.286z M92.32,67.832c-0.974,0.63-2.338,0.338-2.962-0.609
		c-0.311-0.475-0.411-1.05-0.298-1.604c0.113-0.554,0.43-1.035,0.91-1.346c0.354-0.231,0.752-0.35,1.172-0.35
		c0.715,0,1.395,0.362,1.787,0.962C93.571,65.868,93.291,67.189,92.32,67.832z"/>
</g>
<g>
</g>
<g>
</g>
<g>
</g>
<g>
</g>
<g>
</g>
<g>
</g>
<g>
</g>
<g>
</g>
<g>
</g>
<g>
</g>
<g>
</g>
<g>
</g>
<g>
</g>
<g>
</g>
<g>
</g>
</svg>
